# xmcd
#
# Track frame offsets: 
#        150
#        7331
#        19153
#        42184
#        53946
#        71902
#        91590
#        110224
#        130145
#        157247
#        167337
#        189911
#        210804
#        227415
#        238991
#
# Disc length: 3427 seconds
#
# Revision: 0
# Processed by: cddbd v1.5.2PL0 Copyright (c) Steve Scherf et al.
# Submitted via: ExactAudioCopy v0.99pb3
#
DISCID=c60d610f
DTITLE=Barrelhouse Chuck - Chicago Blues Piano - Vol. 4 - The Blue Lig
DTITLE=hts Band Live
DYEAR=2009
DGENRE=Blues
TTITLE0=Live Band Intro
TTITLE1=Chicago Bound
TTITLE2=Straight From The Shoulder
TTITLE3=Tutti Frutti
TTITLE4=I Wonder Why
TTITLE5=Ain't Superstitious
TTITLE6=Sad And Evil Woman
TTITLE7=On My Way To Memphis
TTITLE8=Lightnin'
TTITLE9=Lucille
TTITLE10=West Side Baby
TTITLE11=Looking For A Goldmine
TTITLE12=Suzie Q
TTITLE13=Willie's Boogie
TTITLE14=Mamma Told Me
EXTD=
EXTT0=
EXTT1=
EXTT2=
EXTT3=
EXTT4=
EXTT5=
EXTT6=
EXTT7=
EXTT8=
EXTT9=
EXTT10=
EXTT11=
EXTT12=
EXTT13=
EXTT14=
PLAYORDER=
